<?xml version="1.0" standalone="no"?>
<!DOCTYPE svg PUBLIC "-//W3C//DTD SVG 20010904//EN"
 "http://www.w3.org/TR/2001/REC-SVG-20010904/DTD/svg10.dtd">
<svg version="1.0" xmlns="http://www.w3.org/2000/svg"
 width="538.000000pt" height="538.000000pt" viewBox="0 0 538.000000 538.000000"
 preserveAspectRatio="xMidYMid meet">
<metadata>
Created by potrace 1.14, written by Peter Selinger 2001-2017
</metadata>
<g transform="translate(0.000000,538.000000) scale(0.100000,-0.100000)"
fill="#000000" stroke="none">
<path d="M2478 5365 c-2 -2 -35 -7 -73 -10 -39 -4 -81 -8 -95 -11 -14 -2 -41
-7 -60 -10 -19 -3 -48 -7 -65 -10 -25 -4 -110 -23 -175 -39 -16 -4 -132 -39
-190 -58 -19 -6 -37 -11 -40 -12 -3 0 -14 -6 -25 -12 -11 -6 -24 -12 -30 -13
-5 -1 -20 -6 -33 -11 -13 -5 -25 -9 -28 -9 -20 0 -326 -160 -399 -208 -22 -15
-47 -31 -56 -37 -52 -33 -105 -70 -117 -82 -7 -7 -16 -13 -20 -13 -4 0 -21
-13 -38 -28 -17 -15 -53 -45 -80 -67 -77 -62 -274 -262 -339 -345 -33 -41 -62
-77 -66 -80 -3 -3 -30 -41 -60 -85 -30 -44 -57 -81 -61 -83 -5 -2 -8 -7 -8
-12 0 -4 -18 -38 -41 -75 -147 -242 -271 -569 -324 -850 -2 -11 -6 -29 -8 -40
-3 -12 -8 -48 -12 -80 -4 -33 -9 -69 -11 -80 -13 -66 -17 -266 -18 -1003 -1
-951 0 -973 80 -1202 3 -8 5 -16 5 -17 -1 -2 8 -19 19 -38 11 -20 20 -42 20
-50 0 -8 3 -15 8 -15 4 0 18 -22 31 -50 82 -167 300 -377 496 -478 84 -43 191
-87 237 -96 13 -3 34 -8 48 -11 121 -29 166 -30 1040 -30 492 0 929 4 970 9
114 13 122 14 165 21 64 11 215 45 274 62 29 8 59 16 65 18 6 1 18 5 26 8 8 3
40 13 70 22 30 10 59 21 64 26 6 5 16 9 24 9 7 0 39 12 70 26 67 31 105 46
111 44 2 -1 7 2 10 7 3 4 33 21 66 37 33 17 89 47 124 68 34 21 65 38 66 38 2
0 41 25 87 56 253 172 498 410 677 657 70 98 191 295 191 313 0 7 4 14 8 16
10 4 71 131 114 238 48 119 110 318 124 395 2 11 13 64 24 119 19 95 22 118
37 271 11 124 5 457 -11 540 -2 11 -7 45 -11 75 -4 30 -9 62 -10 70 -2 8 -11
51 -20 95 -9 44 -26 112 -37 150 -11 39 -21 75 -23 80 -1 6 -7 23 -13 38 -7
16 -12 33 -12 38 0 32 -142 346 -199 439 -11 19 -25 44 -31 55 -26 54 -156
241 -217 316 -65 78 -111 127 -214 229 -123 121 -160 153 -273 237 -39 29 -75
56 -81 60 -9 8 -102 66 -185 118 -52 32 -275 139 -350 168 -116 45 -286 99
-350 111 -14 2 -55 11 -91 20 -36 9 -84 18 -105 21 -21 2 -88 11 -149 18 -95
12 -487 21 -497 12z"/>
</g>
</svg>
